# xmcd
#
# Track frame offsets:
#	150
#	16239
#	28893
#	44503
#	59653
#	76548
#	90761
#	106009
#	112523
#	122622
#	134238
#	149966
#	162329
#	173569
#	186706
#	200849
#	214714
#	228086
#	243471
#	258859
#	271857
#	287985
#	292091
#	305944
#	317886
#
# Disc length: 4361 seconds
#
# Revision: 1
# Processed by: cddbd v1.5.2PL0 Copyright (c) Steve Scherf et al.
# Submitted via: audiograbber 1.83.01
#
DISCID=78110719
DTITLE=Axton, Hoyt - Joy To The World - The Definitive Collection - CD1
DYEAR=2016
DGENRE=Country
TTITLE0=When The Morning Comes
TTITLE1=Joy To The World
TTITLE2=Never Been To Spain
TTITLE3=Alice In The Wonderland
TTITLE4=Geronimo's Cadillac
TTITLE5=Jambalaya (On The Bayou)
TTITLE6=Lion In The Winter
TTITLE7=Country Anthem
TTITLE8=Roll Your Own
TTITLE9=Southbound
TTITLE10=Telephone Booth
TTITLE11=Flash Of Fire
TTITLE12=Speed Trap (Out Of State Cars)
TTITLE13=Snowblind Friend
TTITLE14=Poncho And Lefty
TTITLE15=Pet Parade
TTITLE16=Funeral Of The King
TTITLE17=Sweet Misery
TTITLE18=Whisper In A Velvet Night
TTITLE19=Hey, Mr. Pilot Man
TTITLE20=Evangelina
TTITLE21=My Carolina Sunshine Girl
TTITLE22=The Heart You Break (May Be Your Own)
TTITLE23=Billy's Theme
TTITLE24=You're The Hangnail In My Life
EXTD=
EXTT0=
EXTT1=
EXTT2=
EXTT3=
EXTT4=
EXTT5=
EXTT6=
EXTT7=
EXTT8=
EXTT9=
EXTT10=
EXTT11=
EXTT12=
EXTT13=
EXTT14=
EXTT15=
EXTT16=
EXTT17=
EXTT18=
EXTT19=
EXTT20=
EXTT21=
EXTT22=
EXTT23=
EXTT24=
PLAYORDER=
